<svg width="20" height="20" viewBox="0 0 20 20" fill="none" xmlns="http://www.w3.org/2000/svg">
<path fill-rule="evenodd" clip-rule="evenodd" d="M2.22225 7.77769C2.22225 6.30428 2.80757 4.89122 3.84946 3.84936C4.89135 2.80751 6.30445 2.2222 7.7779 2.2222C9.25135 2.2222 10.6645 2.80751 11.7063 3.84936C12.7482 4.89122 13.3336 6.30428 13.3336 7.77769C13.3336 9.2511 12.7482 10.6642 11.7063 11.706C10.6645 12.7479 9.25135 13.3332 7.7779 13.3332C6.30445 13.3332 4.89135 12.7479 3.84946 11.706C2.80757 10.6642 2.22225 9.2511 2.22225 7.77769ZM7.7779 2.45088e-07C6.54595 2.34419e-06 5.33161 0.292636 4.2349 0.853803C3.13818 1.41497 2.19046 2.22862 1.46976 3.22775C0.749071 4.22688 0.276027 5.3829 0.089586 6.60063C-0.0968551 7.81836 0.00863981 9.06296 0.397383 10.2319C0.786127 11.4009 1.447 12.4608 2.32558 13.3244C3.20416 14.188 4.27531 14.8305 5.45083 15.1991C6.62636 15.5677 7.87262 15.6518 9.087 15.4444C10.3014 15.2371 11.4491 14.7443 12.4358 14.0065L18.1025 19.6742C18.3109 19.8827 18.5935 19.9999 18.8883 20C19.183 20.0001 19.4657 19.8831 19.6742 19.6748C19.8827 19.4664 19.9999 19.1838 20 18.8891C20.0001 18.5943 19.8831 18.3116 19.6748 18.1031L14.008 12.4365C14.8728 11.2804 15.3988 9.90647 15.527 8.46843C15.6553 7.03038 15.3807 5.58503 14.734 4.29418C14.0874 3.00334 13.0942 1.91796 11.8656 1.15955C10.6371 0.401136 9.22169 -0.000362135 7.7779 2.45088e-07Z" fill="#8D96AA"/>
</svg>
